Coordinates
version=1
nRows=17
nColumns=24
inDegrees=yes

Units are S.I. units (second, meters, Newtons, ...)
Angles are in degrees.

endheader
time	pelvis_tilt	pelvis_list	pelvis_rotation	pelvis_tx	pelvis_ty	pelvis_tz	hip_flexion_r	hip_adduction_r	hip_rotation_r	knee_angle_r	ankle_angle_r	subtalar_angle_r	mtp_angle_r	hip_flexion_l	hip_adduction_l	hip_rotation_l	knee_angle_l	ankle_angle_l	subtalar_angle_l	mtp_angle_l	lumbar_extension	lumbar_bending	lumbar_rotation
      1.37466667	     -7.70537626	      1.55016961	     -6.97109425	      0.44108718	      1.06462443	      0.32341437	     21.50708961	     -4.43938145	     -3.83983054	    -67.80318299	      2.35890247	     -2.92554212	      4.88791183	     19.70873104	      2.31467499	     -1.83964654	    -20.45837598	     11.25052770	      3.28007116	     -2.78732590	     -5.53071913	     -3.70007209	      1.80198004
      1.37883333	     -7.67392623	      1.47006481	     -6.86810028	      0.44613563	      1.06565986	      0.32324289	     21.94395150	     -4.30896630	     -3.92143097	    -67.43088479	      2.69112988	     -2.64546326	      4.97190642	     19.16402857	      2.30517656	     -1.75190379	    -20.02652329	     11.30798501	      3.34658501	     -2.79246530	     -5.54101986	     -3.61792511	      1.63586973
      1.38300000	     -7.64518475	      1.37026333	     -6.75283935	      0.45116541	      1.06669022	      0.32306796	     22.36595531	     -4.15393357	     -4.01255365	    -67.00447649	      3.03058022	     -2.38874276	      5.03647251	     18.62574627	      2.27362447	     -1.65298581	    -19.59974505	     11.32851520	      3.43669511	     -2.79568676	     -5.57087410	     -3.51791827	      1.52234248
      1.38716667	     -7.60211210	      1.26894742	     -6.63421066	      0.45619487	      1.06768344	      0.32287615	     22.76345708	     -4.00458727	     -4.11029923	    -66.54191853	      3.36071525	     -2.11707419	      5.10737615	     18.07253936	      2.24273792	     -1.55312697	    -19.17388152	     11.37657217	      3.52082667	     -2.79736943	     -5.60658953	     -3.41253779	      1.37962298
      1.39133333	     -7.58149454	      1.18760334	     -6.51225098	      0.46122251	      1.06858980	      0.32269756	     23.18305842	     -3.87356437	     -4.20391498	    -66.05195060	      3.69553582	     -1.86470843	      5.16767654	     17.54509719	      2.22710917	     -1.45521081	    -18.74357745	     11.39668716	      3.60090695	     -2.79859009	     -5.61575365	     -3.32948879	      1.25268537
      1.39550000	     -7.55048264	      1.11041046	     -6.38356003	      0.46625330	      1.06945562	      0.32248715	     23.58385812	     -3.75744609	     -4.30886083	    -65.53136113	      4.01735777	     -1.59939060	      5.24779343	     17.00388395	      2.22169696	     -1.33952104	    -18.30524922	     11.44675864	      3.65145576	     -2.79858258	     -5.62526486	     -3.23624077	      1.07595079
      1.39966667	     -7.52791829	      1.01801595	     -6.25097701	      0.47127203	      1.07028587	      0.32228469	     23.97818453	     -3.61939289	     -4.41297871	    -64.96285725	      4.32918135	     -1.37666255	      5.32115816	     16.47651577	      2.19539722	     -1.22240716	    -17.87687957	     11.47817110	      3.72206463	     -2.79774443	     -5.63655678	     -3.13702488	      0.93177865
      1.40383333	     -7.53431846	      0.93122270	     -6.11150111	      0.47628571	      1.07099196	      0.32209449	     24.39838803	     -3.48434911	     -4.52101482	    -64.37096023	      4.64211357	     -1.19944636	      5.36460635	     15.99028993	      2.16693921	     -1.12280926	    -17.46540003	     11.49284288	      3.81818743	     -2.79650004	     -5.61104151	     -3.03583196	      0.83902993
      1.40800000	     -7.50763874	      0.86243639	     -5.97527318	      0.48129174	      1.07170863	      0.32188720	     24.77993626	     -3.37916087	     -4.62256644	    -63.75198037	      4.94442152	     -0.96704461	      5.43109147	     15.45986965	      2.16538790	     -0.99306445	    -17.03115579	     11.55155891	      3.85489295	     -2.79307167	     -5.62225111	     -2.96331282	      0.64834235
      1.41216667	     -7.50129990	      0.79468449	     -5.83276791	      0.48628178	      1.07233889	      0.32169031	     25.17513411	     -3.26963700	     -4.72321324	    -63.10313322	      5.24203348	     -0.81906337	      5.52838472	     14.95526328	      2.16096820	     -0.85118860	    -16.59821768	     11.55521713	      3.88092829	     -2.78738503	     -5.61762012	     -2.88510374	      0.45279473
      1.41633333	     -7.51539351	      0.71461871	     -5.68976274	      0.49128187	      1.07288894	      0.32150945	     25.57746475	     -3.14294482	     -4.82467366	    -62.41472057	      5.52094521	     -0.69733822	      5.56379796	     14.48670707	      2.13223805	     -0.74924666	    -16.20181723	     11.60419724	      3.97517425	     -2.78353923	     -5.58088545	     -2.80032793	      0.38639320
      1.42050000	     -7.52476138	      0.63704760	     -5.54511478	      0.49626316	      1.07338939	      0.32131254	     25.96743040	     -3.02325758	     -4.92427825	    -61.69952202	      5.80437989	     -0.57236591	      5.60240168	     14.01352824	      2.10862262	     -0.63063881	    -15.80062340	     11.65610648	      4.04258166	     -2.77849163	     -5.55350312	     -2.71148365	      0.25687466
      1.42466667	     -7.53424555	      0.58079937	     -5.40614380	      0.50124666	      1.07383179	      0.32113535	     26.35785829	     -2.92608711	     -5.01462817	    -60.97035494	      6.07648217	     -0.51233598	      5.62808735	     13.53900189	      2.10249298	     -0.52874004	    -15.39091951	     11.70137719	      4.12315185	     -2.77420184	     -5.52104668	     -2.62989720	      0.15591751
      1.42883333	     -7.54256098	      0.51963266	     -5.25694966	      0.50620242	      1.07422400	      0.32094855	     26.73301750	     -2.82714352	     -5.10666617	    -60.20374173	      6.33225925	     -0.41746906	      5.67441814	     13.06828086	      2.09689413	     -0.36808682	    -14.99078088	     11.76518024	      4.11642715	     -2.76426713	     -5.49717418	     -2.56669578	     -0.06631141
      1.43300000	     -7.58103009	      0.46146819	     -5.11564439	      0.51115360	      1.07450769	      0.32080575	     27.13492978	     -2.71803499	     -5.18015868	    -59.41470839	      6.59873007	     -0.41373744	      5.69648018	     12.64347110	      2.07945026	     -0.26399587	    -14.61723460	     11.80876875	      4.19126041	     -2.75809149	     -5.43762971	     -2.50863877	     -0.14483552
      1.43716667	     -7.58502226	      0.41067289	     -4.97053008	      0.51609071	      1.07480694	      0.32063422	     27.49157902	     -2.62949993	     -5.25804711	    -58.59995451	      6.83624199	     -0.40018717	      5.72888935	     12.17369224	      2.07895159	     -0.11077692	    -14.22304422	     11.87619736	      4.19832805	     -2.74565880	     -5.42097465	     -2.44063938	     -0.32287839
      1.44133333	     -7.62252626	      0.37259834	     -4.84130369	      0.52102028	      1.07497059	      0.32052121	     27.88434001	     -2.53897198	     -5.30811962	    -57.77432906	      7.09618573	     -0.44168544	      5.73852090	     11.75512540	      2.07511617	     -0.03170735	    -13.85790998	     11.94284231	      4.29264616	     -2.74017580	     -5.35999122	     -2.40120365	     -0.36764810
